<mxfile host="app.diagrams.net" agent="Mozilla/5.0 (Macintosh; Intel Mac OS X 10_15_7) AppleWebKit/537.36 (KHTML, like Gecko) Chrome/129.0.0.0 Safari/537.36" version="24.7.16">
  <diagram name="Страница — 1" id="cskO_3SsB1AhspjuIp23">
    <mxGraphModel dx="734" dy="492" grid="0" gridSize="10" guides="1" tooltips="1" connect="1" arrows="1" fold="1" page="1" pageScale="1" pageWidth="1442" pageHeight="2039" math="0" shadow="0">
      <root>
        <mxCell id="0" />
        <mxCell id="1" parent="0" />
        <mxCell id="4TRZT6uHNvwqL9tTGc9j-6" style="edgeStyle=orthogonalEdgeStyle;rounded=0;orthogonalLoop=1;jettySize=auto;html=1;exitX=0.5;exitY=1;exitDx=0;exitDy=0;fillColor=#60a917;strokeColor=#2D7600;" edge="1" parent="1" source="4TRZT6uHNvwqL9tTGc9j-1" target="4TRZT6uHNvwqL9tTGc9j-3">
          <mxGeometry relative="1" as="geometry" />
        </mxCell>
        <mxCell id="4TRZT6uHNvwqL9tTGc9j-7" style="edgeStyle=orthogonalEdgeStyle;rounded=0;orthogonalLoop=1;jettySize=auto;html=1;exitX=0.5;exitY=1;exitDx=0;exitDy=0;entryX=0.5;entryY=0;entryDx=0;entryDy=0;fillColor=#60a917;strokeColor=#2D7600;" edge="1" parent="1" source="4TRZT6uHNvwqL9tTGc9j-1" target="4TRZT6uHNvwqL9tTGc9j-4">
          <mxGeometry relative="1" as="geometry">
            <Array as="points">
              <mxPoint x="460" y="160" />
              <mxPoint x="260" y="160" />
            </Array>
          </mxGeometry>
        </mxCell>
        <mxCell id="4TRZT6uHNvwqL9tTGc9j-8" style="edgeStyle=orthogonalEdgeStyle;rounded=0;orthogonalLoop=1;jettySize=auto;html=1;exitX=0.5;exitY=1;exitDx=0;exitDy=0;fillColor=#60a917;strokeColor=#2D7600;" edge="1" parent="1" source="4TRZT6uHNvwqL9tTGc9j-1" target="4TRZT6uHNvwqL9tTGc9j-5">
          <mxGeometry relative="1" as="geometry">
            <Array as="points">
              <mxPoint x="460" y="160" />
              <mxPoint x="661" y="160" />
            </Array>
          </mxGeometry>
        </mxCell>
        <mxCell id="4TRZT6uHNvwqL9tTGc9j-16" style="edgeStyle=orthogonalEdgeStyle;rounded=0;orthogonalLoop=1;jettySize=auto;html=1;exitX=0.5;exitY=1;exitDx=0;exitDy=0;entryX=0;entryY=0.5;entryDx=0;entryDy=0;fillColor=#60a917;strokeColor=#2D7600;" edge="1" parent="1" source="4TRZT6uHNvwqL9tTGc9j-1" target="4TRZT6uHNvwqL9tTGc9j-15">
          <mxGeometry relative="1" as="geometry">
            <Array as="points">
              <mxPoint x="460" y="160" />
              <mxPoint x="180" y="160" />
              <mxPoint x="180" y="350" />
            </Array>
          </mxGeometry>
        </mxCell>
        <mxCell id="4TRZT6uHNvwqL9tTGc9j-1" value="Штаб-квартира&amp;nbsp;&lt;div&gt;(Москва, ЦАО)&lt;/div&gt;" style="rounded=0;whiteSpace=wrap;html=1;fillColor=#d5e8d4;strokeColor=#82b366;" vertex="1" parent="1">
          <mxGeometry x="400" y="40" width="120" height="60" as="geometry" />
        </mxCell>
        <mxCell id="4TRZT6uHNvwqL9tTGc9j-3" value="Точка продаж&lt;div&gt;(Москва, СВАО)&lt;/div&gt;" style="rounded=0;whiteSpace=wrap;html=1;fillColor=#dae8fc;strokeColor=#6c8ebf;" vertex="1" parent="1">
          <mxGeometry x="400" y="180" width="120" height="60" as="geometry" />
        </mxCell>
        <mxCell id="4TRZT6uHNvwqL9tTGc9j-4" value="Точка продаж&lt;div&gt;(Москва, ЮЗАО)&lt;/div&gt;" style="rounded=0;whiteSpace=wrap;html=1;fillColor=#dae8fc;strokeColor=#6c8ebf;" vertex="1" parent="1">
          <mxGeometry x="200" y="180" width="120" height="60" as="geometry" />
        </mxCell>
        <mxCell id="4TRZT6uHNvwqL9tTGc9j-5" value="Точка продаж&lt;div&gt;(Москва, ЮВАО)&lt;/div&gt;" style="rounded=0;whiteSpace=wrap;html=1;fillColor=#dae8fc;strokeColor=#6c8ebf;" vertex="1" parent="1">
          <mxGeometry x="601" y="180" width="120" height="60" as="geometry" />
        </mxCell>
        <mxCell id="4TRZT6uHNvwqL9tTGc9j-17" style="edgeStyle=orthogonalEdgeStyle;rounded=0;orthogonalLoop=1;jettySize=auto;html=1;exitX=0.5;exitY=0;exitDx=0;exitDy=0;entryX=0.5;entryY=1;entryDx=0;entryDy=0;fillColor=#f0a30a;strokeColor=#BD7000;" edge="1" parent="1" source="4TRZT6uHNvwqL9tTGc9j-15" target="4TRZT6uHNvwqL9tTGc9j-4">
          <mxGeometry relative="1" as="geometry" />
        </mxCell>
        <mxCell id="4TRZT6uHNvwqL9tTGc9j-18" style="edgeStyle=orthogonalEdgeStyle;rounded=0;orthogonalLoop=1;jettySize=auto;html=1;exitX=0.5;exitY=0;exitDx=0;exitDy=0;entryX=0.5;entryY=1;entryDx=0;entryDy=0;fillColor=#f0a30a;strokeColor=#BD7000;" edge="1" parent="1" source="4TRZT6uHNvwqL9tTGc9j-15" target="4TRZT6uHNvwqL9tTGc9j-3">
          <mxGeometry relative="1" as="geometry" />
        </mxCell>
        <mxCell id="4TRZT6uHNvwqL9tTGc9j-19" style="edgeStyle=orthogonalEdgeStyle;rounded=0;orthogonalLoop=1;jettySize=auto;html=1;exitX=0.5;exitY=0;exitDx=0;exitDy=0;entryX=0.5;entryY=1;entryDx=0;entryDy=0;fillColor=#f0a30a;strokeColor=#BD7000;" edge="1" parent="1" source="4TRZT6uHNvwqL9tTGc9j-15" target="4TRZT6uHNvwqL9tTGc9j-5">
          <mxGeometry relative="1" as="geometry" />
        </mxCell>
        <mxCell id="4TRZT6uHNvwqL9tTGc9j-15" value="Склад&lt;div&gt;(Московская область)&lt;/div&gt;" style="rounded=0;whiteSpace=wrap;html=1;fillColor=#ffe6cc;strokeColor=#d79b00;" vertex="1" parent="1">
          <mxGeometry x="400" y="320" width="120" height="60" as="geometry" />
        </mxCell>
      </root>
    </mxGraphModel>
  </diagram>
</mxfile>
